<svg width="2719" height="407" viewBox="0 0 2719 407" fill="none" xmlns="http://www.w3.org/2000/svg">
<g filter="url(#filter0_d_1_24)">
<path d="M4 50.341C4 22.7267 26.3858 0.341011 54 0.341011H584C611.614 0.341011 634 22.7268 634 50.341V349C634 376.614 611.614 399 584 399H54C26.3858 399 4 376.614 4 349V50.341Z" fill="#159A9C"/>
<path d="M54 0.841011H584C611.338 0.841011 633.5 23.0029 633.5 50.341V349C633.5 376.338 611.338 398.5 584 398.5H54C26.6619 398.5 4.5 376.338 4.5 349V50.341C4.5 23.0029 26.6619 0.841011 54 0.841011Z" stroke="#159A9C"/>
</g>
<path d="M38.4261 234.159V205.75L267.119 89.2727V134.727L91.6932 219.244L93.1136 216.403V223.506L91.6932 220.665L267.119 305.182V350.636L38.4261 234.159ZM596.709 234.159L368.016 350.636V305.182L543.442 220.665L542.022 223.506V216.403L543.442 219.244L368.016 134.727V89.2727L596.709 205.75V234.159Z" fill="white"/>
<path d="M816.2 243.3C829.4 265.1 846 289.1 866 315.3L865.7 318.3C858.5 321.1 851.1 322.9 843.5 323.7L840.2 321.6C823.8 297 809.1 273 796.1 249.6H761V261L762.2 321H737.9L739.4 263.1L737.9 128.7L796.7 128.4C815.5 128.4 830 133.2 840.2 142.8C850.6 152.2 855.8 165.7 855.8 183.3C855.8 196.5 852.3 208.4 845.3 219C838.5 229.4 828.8 237.5 816.2 243.3ZM761.3 229.2L797.3 230.1C819.7 223.7 830.9 208.8 830.9 185.4C830.9 173.2 827.6 164.1 821 158.1C814.4 151.9 804.5 148.6 791.3 148.2L762.2 149.1L761.3 229.2ZM940.866 181.2C959.466 181.2 973.866 187.3 984.066 199.5C994.466 211.5 999.666 228.5 999.666 250.5C999.666 273.7 994.266 291.7 983.466 304.5C972.666 317.1 957.266 323.4 937.266 323.4C918.466 323.4 903.866 317.4 893.466 305.4C883.266 293.2 878.166 276.1 878.166 254.1C878.166 230.9 883.566 213 894.366 200.4C905.366 187.6 920.866 181.2 940.866 181.2ZM939.366 198C926.766 198 917.166 202.3 910.566 210.9C903.966 219.5 900.666 232.1 900.666 248.7C900.666 267.9 903.866 282.3 910.266 291.9C916.866 301.5 926.366 306.3 938.766 306.3C951.366 306.3 960.966 302.1 967.566 293.7C974.166 285.3 977.466 272.7 977.466 255.9C977.466 236.9 974.166 222.5 967.566 212.7C961.166 202.9 951.766 198 939.366 198ZM1100.83 182.1C1118.23 182.1 1131.43 187.9 1140.43 199.5C1149.63 210.9 1154.23 227.1 1154.23 248.1C1154.23 272.1 1148.43 290.7 1136.83 303.9C1125.23 316.9 1109.03 323.4 1088.23 323.4C1078.63 323.4 1068.83 321.2 1058.83 316.8L1042.33 324.3L1038.13 321.9L1039.93 263.4L1038.43 112.5L1062.13 110.4L1061.23 202.5H1063.03C1069.83 196.9 1076.03 192.6 1081.63 189.6C1087.23 186.6 1093.63 184.1 1100.83 182.1ZM1090.33 306C1103.13 306 1113.23 301.5 1120.63 292.5C1128.03 283.5 1131.73 270.2 1131.73 252.6C1131.73 236.4 1128.83 223.9 1123.03 215.1C1117.43 206.1 1109.33 201.6 1098.73 201.6C1092.53 201.6 1086.33 203.3 1080.13 206.7C1074.13 210.1 1067.73 215.4 1060.93 222.6L1060.63 260.7L1061.53 296.4C1071.13 302.8 1080.73 306 1090.33 306ZM1201.83 251.4V252C1201.83 268.8 1205.63 281.7 1213.23 290.7C1220.83 299.7 1231.63 304.2 1245.63 304.2C1252.63 304.2 1259.63 303.1 1266.63 300.9C1273.63 298.5 1280.03 295.2 1285.83 291L1288.23 292.8L1284.63 313.2C1270.63 320 1256.63 323.4 1242.63 323.4C1223.03 323.4 1207.63 317.2 1196.43 304.8C1185.23 292.2 1179.63 275 1179.63 253.2C1179.63 231.2 1185.23 213.7 1196.43 200.7C1207.63 187.7 1222.73 181.2 1241.73 181.2C1257.73 181.2 1270.13 185.8 1278.93 195C1287.73 204 1292.13 216.6 1292.13 232.8C1292.13 238.2 1291.73 243.3 1290.93 248.1L1287.93 251.1L1201.83 251.4ZM1241.73 198C1231.73 198 1223.33 201.3 1216.53 207.9C1209.93 214.3 1205.53 223.4 1203.33 235.2L1269.63 234L1270.23 229.8C1270.23 219.6 1267.73 211.8 1262.73 206.4C1257.93 200.8 1250.93 198 1241.73 198ZM1392.31 183.3C1394.71 183.3 1397.31 183.5 1400.11 183.9V207L1397.41 207.9C1394.01 206.9 1390.31 206.4 1386.31 206.4C1379.71 206.4 1373.61 209.1 1368.01 214.5C1362.61 219.7 1357.21 228.1 1351.81 239.7L1351.51 260.7L1353.01 321H1329.31L1330.81 262.8L1329.61 185.1L1352.11 183L1351.81 211.2H1353.61C1359.21 201.2 1365.41 194.1 1372.21 189.9C1379.01 185.5 1385.71 183.3 1392.31 183.3ZM1469.49 302.7C1476.09 302.7 1483.29 300.7 1491.09 296.7L1493.79 298.5L1491.39 314.1C1480.59 319.1 1470.59 322 1461.39 322.8C1449.99 320.6 1441.79 316.4 1436.79 310.2C1431.79 304 1429.29 295 1429.29 283.2L1430.19 261.9L1429.89 199.8H1410.99L1409.79 198L1411.29 183.9H1429.59V161.7L1450.29 152.7L1452.69 154.8L1452.09 183.9H1492.89L1494.09 185.7L1492.59 199.8H1452.09L1450.59 281.1C1450.39 289.1 1451.79 294.7 1454.79 297.9C1457.79 301.1 1462.69 302.7 1469.49 302.7ZM1569.28 181.2C1587.88 181.2 1602.28 187.3 1612.48 199.5C1622.88 211.5 1628.08 228.5 1628.08 250.5C1628.08 273.7 1622.68 291.7 1611.88 304.5C1601.08 317.1 1585.68 323.4 1565.68 323.4C1546.88 323.4 1532.28 317.4 1521.88 305.4C1511.68 293.2 1506.58 276.1 1506.58 254.1C1506.58 230.9 1511.98 213 1522.78 200.4C1533.78 187.6 1549.28 181.2 1569.28 181.2ZM1567.78 198C1555.18 198 1545.58 202.3 1538.98 210.9C1532.38 219.5 1529.08 232.1 1529.08 248.7C1529.08 267.9 1532.28 282.3 1538.68 291.9C1545.28 301.5 1554.78 306.3 1567.18 306.3C1579.78 306.3 1589.38 302.1 1595.98 293.7C1602.58 285.3 1605.88 272.7 1605.88 255.9C1605.88 236.9 1602.58 222.5 1595.98 212.7C1589.58 202.9 1580.18 198 1567.78 198ZM1795.86 127.2C1816.06 127.2 1834.86 131.7 1852.26 140.7L1847.46 163.5L1844.46 164.1C1834.86 158.1 1825.96 153.8 1817.76 151.2C1809.76 148.6 1801.26 147.3 1792.26 147.3C1748.86 147.3 1727.16 174.1 1727.16 227.7C1727.16 253.5 1732.16 272.5 1742.16 284.7C1752.36 296.7 1768.06 302.7 1789.26 302.7C1794.86 302.7 1800.46 302.2 1806.06 301.2C1811.86 300.2 1819.26 298.3 1828.26 295.5L1828.86 273L1828.56 244.2L1851.06 242.4L1850.46 269.7L1851.66 311.7C1838.66 315.7 1827.16 318.6 1817.16 320.4C1807.16 322.2 1797.46 323.1 1788.06 323.1C1759.46 323.1 1737.96 315 1723.56 298.8C1709.36 282.6 1702.26 259.2 1702.26 228.6C1702.26 195.6 1710.36 170.5 1726.56 153.3C1742.76 135.9 1765.86 127.2 1795.86 127.2ZM2011.88 303.3L2009.48 316.8C2003.68 320.2 1997.98 322.2 1992.38 322.8C1986.58 322 1981.88 320 1978.28 316.8C1974.88 313.4 1972.48 308.4 1971.08 301.8H1969.28C1957.28 312.6 1944.88 319.6 1932.08 322.8C1917.28 322.8 1905.98 319.3 1898.18 312.3C1890.58 305.3 1886.88 295.3 1887.08 282.3L1887.38 244.2L1886.48 185.1L1910.48 183L1908.68 276.6C1908.68 284.8 1910.58 291.2 1914.38 295.8C1918.38 300.4 1924.18 302.7 1931.78 302.7C1944.18 302.7 1956.58 296.7 1968.98 284.7V185.1L1991.78 183L1990.28 291.6C1990.28 295.8 1990.88 298.8 1992.08 300.6C1993.48 302.2 1995.78 303 1998.98 303C2002.18 303 2005.68 302.4 2009.48 301.2L2011.88 303.3ZM2052.32 251.4V252C2052.32 268.8 2056.12 281.7 2063.72 290.7C2071.32 299.7 2082.12 304.2 2096.12 304.2C2103.12 304.2 2110.12 303.1 2117.12 300.9C2124.12 298.5 2130.52 295.2 2136.32 291L2138.72 292.8L2135.12 313.2C2121.12 320 2107.12 323.4 2093.12 323.4C2073.52 323.4 2058.12 317.2 2046.92 304.8C2035.72 292.2 2030.12 275 2030.12 253.2C2030.12 231.2 2035.72 213.7 2046.92 200.7C2058.12 187.7 2073.22 181.2 2092.22 181.2C2108.22 181.2 2120.62 185.8 2129.42 195C2138.22 204 2142.62 216.6 2142.62 232.8C2142.62 238.2 2142.22 243.3 2141.42 248.1L2138.42 251.1L2052.32 251.4ZM2092.22 198C2082.22 198 2073.82 201.3 2067.02 207.9C2060.42 214.3 2056.02 223.4 2053.82 235.2L2120.12 234L2120.72 229.8C2120.72 219.6 2118.22 211.8 2113.22 206.4C2108.42 200.8 2101.42 198 2092.22 198ZM2242.8 183.3C2245.2 183.3 2247.8 183.5 2250.6 183.9V207L2247.9 207.9C2244.5 206.9 2240.8 206.4 2236.8 206.4C2230.2 206.4 2224.1 209.1 2218.5 214.5C2213.1 219.7 2207.7 228.1 2202.3 239.7L2202 260.7L2203.5 321H2179.8L2181.3 262.8L2180.1 185.1L2202.6 183L2202.3 211.2H2204.1C2209.7 201.2 2215.9 194.1 2222.7 189.9C2229.5 185.5 2236.2 183.3 2242.8 183.3ZM2339.77 183.3C2342.17 183.3 2344.77 183.5 2347.57 183.9V207L2344.87 207.9C2341.47 206.9 2337.77 206.4 2333.77 206.4C2327.17 206.4 2321.07 209.1 2315.47 214.5C2310.07 219.7 2304.67 228.1 2299.27 239.7L2298.97 260.7L2300.47 321H2276.77L2278.27 262.8L2277.07 185.1L2299.57 183L2299.27 211.2H2301.07C2306.67 201.2 2312.87 194.1 2319.67 189.9C2326.47 185.5 2333.17 183.3 2339.77 183.3ZM2384.25 251.4V252C2384.25 268.8 2388.05 281.7 2395.65 290.7C2403.25 299.7 2414.05 304.2 2428.05 304.2C2435.05 304.2 2442.05 303.1 2449.05 300.9C2456.05 298.5 2462.45 295.2 2468.25 291L2470.65 292.8L2467.05 313.2C2453.05 320 2439.05 323.4 2425.05 323.4C2405.45 323.4 2390.05 317.2 2378.85 304.8C2367.65 292.2 2362.05 275 2362.05 253.2C2362.05 231.2 2367.65 213.7 2378.85 200.7C2390.05 187.7 2405.15 181.2 2424.15 181.2C2440.15 181.2 2452.55 185.8 2461.35 195C2470.15 204 2474.55 216.6 2474.55 232.8C2474.55 238.2 2474.15 243.3 2473.35 248.1L2470.35 251.1L2384.25 251.4ZM2424.15 198C2414.15 198 2405.75 201.3 2398.95 207.9C2392.35 214.3 2387.95 223.4 2385.75 235.2L2452.05 234L2452.65 229.8C2452.65 219.6 2450.15 211.8 2445.15 206.4C2440.35 200.8 2433.35 198 2424.15 198ZM2574.73 183.3C2577.13 183.3 2579.73 183.5 2582.53 183.9V207L2579.83 207.9C2576.43 206.9 2572.73 206.4 2568.73 206.4C2562.13 206.4 2556.03 209.1 2550.43 214.5C2545.03 219.7 2539.63 228.1 2534.23 239.7L2533.93 260.7L2535.43 321H2511.73L2513.23 262.8L2512.03 185.1L2534.53 183L2534.23 211.2H2536.03C2541.63 201.2 2547.83 194.1 2554.63 189.9C2561.43 185.5 2568.13 183.3 2574.73 183.3ZM2659.71 181.2C2678.31 181.2 2692.71 187.3 2702.91 199.5C2713.31 211.5 2718.51 228.5 2718.51 250.5C2718.51 273.7 2713.11 291.7 2702.31 304.5C2691.51 317.1 2676.11 323.4 2656.11 323.4C2637.31 323.4 2622.71 317.4 2612.31 305.4C2602.11 293.2 2597.01 276.1 2597.01 254.1C2597.01 230.9 2602.41 213 2613.21 200.4C2624.21 187.6 2639.71 181.2 2659.71 181.2ZM2658.21 198C2645.61 198 2636.01 202.3 2629.41 210.9C2622.81 219.5 2619.51 232.1 2619.51 248.7C2619.51 267.9 2622.71 282.3 2629.11 291.9C2635.71 301.5 2645.21 306.3 2657.61 306.3C2670.21 306.3 2679.81 302.1 2686.41 293.7C2693.01 285.3 2696.31 272.7 2696.31 255.9C2696.31 236.9 2693.01 222.5 2686.41 212.7C2680.01 202.9 2670.61 198 2658.21 198Z" fill="#159A9C"/>
<defs>
<filter id="filter0_d_1_24" x="0" y="0.341011" width="638" height="406.659" filterUnits="userSpaceOnUse" color-interpolation-filters="sRGB">
<feFlood flood-opacity="0" result="BackgroundImageFix"/>
<feColorMatrix in="SourceAlpha" type="matrix" values="0 0 0 0 0 0 0 0 0 0 0 0 0 0 0 0 0 0 127 0" result="hardAlpha"/>
<feOffset dy="4"/>
<feGaussianBlur stdDeviation="2"/>
<feComposite in2="hardAlpha" operator="out"/>
<feColorMatrix type="matrix" values="0 0 0 0 0 0 0 0 0 0 0 0 0 0 0 0 0 0 0.25 0"/>
<feBlend mode="normal" in2="BackgroundImageFix" result="effect1_dropShadow_1_24"/>
<feBlend mode="normal" in="SourceGraphic" in2="effect1_dropShadow_1_24" result="shape"/>
</filter>
</defs>
</svg>
